<svg xmlns="http://www.w3.org/2000/svg" viewBox="0 0 48 48" width="24" height="24" fill="none" stroke="#FFFFFF" stroke-width="2" stroke-linecap="round" stroke-linejoin="round">
  <title>Qwen Code Logo</title>
  <path fill="none" d="m18.802 13.666 3.557-4.787-3.557-4.787-7.116 9.574 2.764 4.787h24.171l3.557-4.787z"/>
  <path fill="none" d="m42.178 13.666-3.477-4.787h-9.99l-3.557-4.787h-6.352M17.45 33.224l-5.924-.688-2.367 5.475 11.849 1.375 2.764-4.788-12.086-20.932-5.924-.687z"/>
  <path fill="none" d="m5.762 12.979-2.407 5.404 4.995 8.652-2.367 5.475 3.176 5.501m25.904-13.396 2.367 5.474 5.925-.687-4.734-10.949h-5.528L21.008 39.386l2.367 5.474z"/>
  <path fill="none" d="m23.375 44.86 5.884-.618 4.995-8.652 5.925-.687 3.176-5.501"/>
</svg>
